<?xml version="1.0" encoding="UTF-8"?>
<svg xmlns="http://www.w3.org/2000/svg" width="1120.336" height="182.409" viewBox="0 0 1120.336 182.409">
  <g id="Grupo_71" data-name="Grupo 71" transform="translate(-340 -28)">
    <path id="Caminho_1" data-name="Caminho 1" d="M144.9,0,129.343,31.494H0L18.578,64.3h94.564l-14.26,28.87H37.1l47.324,89.237L185.648,0Z" transform="translate(340 28)" fill="#fff"></path>
    <path id="Caminho_2" data-name="Caminho 2" d="M75.343,25.83h33.282V38.259H87.962V50.4h20.663V62.657H87.962V92.775H75.343Zm43.211,17.427h12.588V67.116c0,4.628.309,7.86.949,9.661a8.469,8.469,0,0,0,3.08,4.206,8.753,8.753,0,0,0,5.227,1.51,9.164,9.164,0,0,0,5.261-1.476,8.713,8.713,0,0,0,3.22-4.35c.515-1.429.761-4.472.761-9.146V43.258h12.5V64.242q0,12.979-2.056,17.752a19.177,19.177,0,0,1-7.377,8.934q-4.872,3.122-12.4,3.12c-5.445,0-9.832-1.214-13.193-3.635a19.289,19.289,0,0,1-7.1-10.154q-1.446-4.5-1.46-16.373Zm56.077,0h12.4v5.061a29.513,29.513,0,0,1,7.686-4.936,18.491,18.491,0,0,1,7.033-1.4,17.079,17.079,0,0,1,12.538,5.155c2.9,2.905,4.328,7.211,4.328,12.925V92.775H206.309v-21.7q0-8.874-.793-11.789a8.133,8.133,0,0,0-2.783-4.44,7.824,7.824,0,0,0-4.89-1.523,9.143,9.143,0,0,0-6.5,2.531,13.485,13.485,0,0,0-3.766,6.974,57.09,57.09,0,0,0-.543,10.066v19.88h-12.4Zm92.685-19.106h12.4V92.775h-12.4V87.539A24.347,24.347,0,0,1,260,92.526a20.686,20.686,0,0,1-7.963,1.523,22.134,22.134,0,0,1-16.632-7.439q-7.03-7.433-7.018-18.5,0-11.463,6.784-18.794a21.7,21.7,0,0,1,16.507-7.333,21.16,21.16,0,0,1,8.388,1.694,22.972,22.972,0,0,1,7.249,5.049ZM254.232,53.465a12.619,12.619,0,0,0-9.617,4.069,14.65,14.65,0,0,0-3.826,10.435,14.78,14.78,0,0,0,3.888,10.563,12.658,12.658,0,0,0,9.6,4.15,12.9,12.9,0,0,0,9.758-4.085q3.871-4.058,3.872-10.672a14.385,14.385,0,0,0-3.872-10.453,13.06,13.06,0,0,0-9.8-4.007M328.95,43.258h12.4V92.775h-12.4V87.539a24.385,24.385,0,0,1-7.314,4.986,20.69,20.69,0,0,1-7.966,1.523,22.139,22.139,0,0,1-16.632-7.439q-7.026-7.433-7.018-18.5,0-11.463,6.787-18.794a21.689,21.689,0,0,1,16.5-7.333,21.163,21.163,0,0,1,8.391,1.694,23.042,23.042,0,0,1,7.249,5.049ZM315.863,53.465a12.607,12.607,0,0,0-9.614,4.069,14.625,14.625,0,0,0-3.829,10.435,14.783,14.783,0,0,0,3.891,10.563,12.651,12.651,0,0,0,9.6,4.15,12.9,12.9,0,0,0,9.758-4.085q3.871-4.058,3.872-10.672a14.386,14.386,0,0,0-3.872-10.453,13.065,13.065,0,0,0-9.8-4.007m86.607-.187-10.347,5.685a17.537,17.537,0,0,0-5.754-4.228,17.316,17.316,0,0,0-6.675-1.176q-6.983,0-11.3,4.163a14.171,14.171,0,0,0-4.3,10.669,13.707,13.707,0,0,0,4.141,10.329,15.021,15.021,0,0,0,10.89,4.007q8.355,0,12.993-5.7l9.8,6.693q-7.985,10.321-22.517,10.329-13.1,0-20.492-7.732a26,26,0,0,1-3.813-31.363,25.727,25.727,0,0,1,10.051-9.508A30.265,30.265,0,0,1,379.6,41.985a29.289,29.289,0,0,1,13.255,2.936,25.194,25.194,0,0,1,9.617,8.356M373.625,92.042l-1.6,5.47,2.553-.094a4.359,4.359,0,0,1,2.737.683,2.244,2.244,0,0,1,.874,1.863,2.842,2.842,0,0,1-1.155,2.347,5.577,5.577,0,0,1-3.454.886,21.445,21.445,0,0,1-6.425-1.042l-1.651,5.857a29.582,29.582,0,0,0,10.116,2.1c3.688,0,6.547-.871,8.615-2.64a8.029,8.029,0,0,0,3.1-6.322,6.411,6.411,0,0,0-1.744-4.35,8.824,8.824,0,0,0-4.808-2.655l.543-2.1Zm76.721-48.784h12.4V92.775h-12.4V87.539a24.346,24.346,0,0,1-7.314,4.986,20.69,20.69,0,0,1-7.966,1.523,22.128,22.128,0,0,1-16.629-7.439q-7.025-7.433-7.021-18.5,0-11.463,6.784-18.794a21.7,21.7,0,0,1,16.507-7.333,21.163,21.163,0,0,1,8.391,1.694,23.006,23.006,0,0,1,7.249,5.049ZM437.262,53.465a12.614,12.614,0,0,0-9.617,4.069,14.639,14.639,0,0,0-3.829,10.435,14.782,14.782,0,0,0,3.891,10.563,12.656,12.656,0,0,0,9.6,4.15,12.9,12.9,0,0,0,9.757-4.085,14.818,14.818,0,0,0,3.875-10.672,14.387,14.387,0,0,0-3.875-10.453,13.058,13.058,0,0,0-9.8-4.007m-13.04-19.431-5.008-7.52q5.832-4.493,11.808-4.5a33.711,33.711,0,0,1,7.657,1.554,23.715,23.715,0,0,0,5.882,1,15.68,15.68,0,0,0,7.916-2.365l4.746,7.1q-5.738,4.91-11.124,4.905a23.817,23.817,0,0,1-6.877-1.229c-2.19-.633-3.579-1-4.156-1.13a18.351,18.351,0,0,0-2.815-.184,15.655,15.655,0,0,0-8.029,2.375m74.39,7.951a26.476,26.476,0,0,1,13.212,3.51,25.706,25.706,0,0,1,13.1,22.473,26.038,26.038,0,0,1-3.485,13.109,25.207,25.207,0,0,1-9.5,9.539,26.337,26.337,0,0,1-13.274,3.432,24.759,24.759,0,0,1-18.2-7.579,25.114,25.114,0,0,1-7.545-18.4,25.994,25.994,0,0,1,25.7-26.08m.187,11.7a12.8,12.8,0,0,0-9.645,4.041,14.287,14.287,0,0,0-3.848,10.3,14.486,14.486,0,0,0,3.813,10.466,12.7,12.7,0,0,0,9.633,4.01,12.874,12.874,0,0,0,9.711-4.053,14.466,14.466,0,0,0,3.872-10.422,14.364,14.364,0,0,0-3.8-10.347A12.923,12.923,0,0,0,498.8,53.68m58.676-27.85h13.131l16.866,47.564L604.559,25.83h13.134L593.528,92.775h-12.31Zm105.76,17.427h12.4V92.775h-12.4V87.539a24.386,24.386,0,0,1-7.314,4.986,20.69,20.69,0,0,1-7.966,1.523,22.135,22.135,0,0,1-16.632-7.439q-7.026-7.433-7.018-18.5,0-11.463,6.787-18.794a21.693,21.693,0,0,1,16.5-7.333,21.137,21.137,0,0,1,8.388,1.694,23.02,23.02,0,0,1,7.252,5.049ZM650.148,53.465a12.616,12.616,0,0,0-9.614,4.069,14.637,14.637,0,0,0-3.826,10.435A14.78,14.78,0,0,0,640.6,78.531a12.651,12.651,0,0,0,9.6,4.15,12.894,12.894,0,0,0,9.757-4.085q3.871-4.058,3.872-10.672a14.385,14.385,0,0,0-3.872-10.453,13.054,13.054,0,0,0-9.8-4.007m38.063-10.207h12.4v5.061a29.567,29.567,0,0,1,7.685-4.936,18.481,18.481,0,0,1,7.034-1.4,17.086,17.086,0,0,1,12.541,5.155Q732.21,51.5,732.2,60.064V92.775H719.889v-21.7q0-8.874-.792-11.789a8.119,8.119,0,0,0-2.787-4.44,7.8,7.8,0,0,0-4.887-1.523,9.142,9.142,0,0,0-6.5,2.531,13.485,13.485,0,0,0-3.766,6.974,57.087,57.087,0,0,0-.543,10.066v19.88h-12.4Zm53.9,0h38.056l-22.342,39h21.069V92.775H738.683l22.423-39h-19Zm68.368-1.273a26.5,26.5,0,0,1,13.215,3.51,25.706,25.706,0,0,1,13.1,22.473A26.034,26.034,0,0,1,833.3,81.077a25.248,25.248,0,0,1-9.5,9.539,26.336,26.336,0,0,1-13.274,3.432,24.761,24.761,0,0,1-18.207-7.579,25.125,25.125,0,0,1-7.545-18.4,25.994,25.994,0,0,1,25.7-26.08m.19,11.7a12.8,12.8,0,0,0-9.648,4.041,14.284,14.284,0,0,0-3.844,10.3,14.5,14.5,0,0,0,3.81,10.466,12.706,12.706,0,0,0,9.633,4.01,12.875,12.875,0,0,0,9.711-4.053A14.443,14.443,0,0,0,824.2,68.018a14.387,14.387,0,0,0-3.794-10.347,12.948,12.948,0,0,0-9.742-3.991m34.961-29.528h12.444V92.772H845.625Zm28.58-1.27a7.712,7.712,0,0,1,5.635,2.362,7.883,7.883,0,0,1,2.334,5.732,7.7,7.7,0,0,1-2.319,5.667,7.553,7.553,0,0,1-5.557,2.343,7.63,7.63,0,0,1-5.676-2.387,7.929,7.929,0,0,1-2.35-5.795,7.9,7.9,0,0,1,7.932-7.923m-6.253,20.376h12.494V92.772H867.952Zm23.746,0h12.4v5.061a29.559,29.559,0,0,1,7.685-4.936,18.48,18.48,0,0,1,7.033-1.4,17.079,17.079,0,0,1,12.538,5.155c2.9,2.905,4.328,7.211,4.328,12.925V92.775H923.376v-21.7q0-8.874-.793-11.789a8.119,8.119,0,0,0-2.786-4.44,7.8,7.8,0,0,0-4.887-1.523,9.143,9.143,0,0,0-6.5,2.531,13.509,13.509,0,0,0-3.766,6.974A57.091,57.091,0,0,0,904.1,72.9v19.88H891.7Zm60.913-20.376a7.7,7.7,0,0,1,5.632,2.362,7.87,7.87,0,0,1,2.334,5.732,7.708,7.708,0,0,1-2.315,5.667,7.855,7.855,0,0,1-11.237-.044,7.942,7.942,0,0,1-2.349-5.795,7.905,7.905,0,0,1,7.935-7.923m-6.257,20.376h12.494V92.772H946.355Z" transform="translate(499.758 74.672)" fill="#fff" fill-rule="evenodd"></path>
  </g>
</svg>
